<svg xmlns="http://www.w3.org/2000/svg" viewBox="0 0 106.08 30.72">
  <path fill="#fff" d="M28.8 30.72h-5.95L14.16 12.48 5.75 30.72H0L14.16 0 28.8 30.72Zm12.48 0h-5.76V0h5.76v30.72ZM62.85 0c8.24 0 14.91 6.68 14.91 14.91v.45c0 8.48-6.88 15.36-15.36 15.36H48.96V9.6h5.76v15.36h7.68c5.3 0 9.6-4.3 9.6-9.6v-.45c0-5.06-4.1-9.15-9.15-9.15H48.96V0h13.89Z"/>
  <path fill="#fff" d="M106.08 30.72h-5.76l-7.2-10.8-7.2 10.8h-5.76L90.24 15.6 81.12 1.92h5.76l19.2 28.8ZM98.4 12l-2.88-4.32 3.84-5.76h5.76L98.4 12Z"/>
</svg>
